<svg xmlns="http://www.w3.org/2000/svg" viewBox="41 56.8 227.9 47">
  <style type="text/css">.cls-0 {fill:#BDDD4A;}
.cls-1 {fill:#FFFFFF;stroke:#DADBD2;stroke-width:0.25;stroke-miterlimit:10;}
.cls-2 {enable-background:new    ;}
.cls-3 {fill:#ABC957;}</style>
  <path id="i1" class="cls-0" d="m78 67 8.2-8h-27.3l-13.5 13.6 17.8 16 5.9-5.3-11.7-10.7-0.4-0.4 6.1-5.2"/>
  <path id="i2" class="cls-0" d="m67.6 73.6h9.3l10.4 10.3c-5 5.1-17.3 16.9-18.5 16.9h-24.3l8.6-7.7h14.4l10.3-9.7-10.2-9.8z"/>
  <path id="w" class="cls-1" d="m120 71.1h-12.7c-1.2 0-2.1-0.6-2.1-1.7s0.9-1.8 2.1-1.8h18.8v-6.1h-19.8c-4.7 0-8.3 3.2-8.3 7.9s3.7 7.5 8.3 7.5h11.9c1.4 0 2.4 0.8 2.4 2s-1 2-2.4 2h-19.6v5.9h21.1c4.9-0.1 7.9-3.2 7.9-7.9 0-4.8-3.1-7.8-7.6-7.8zm22.3-9.6-13.6 24.8h7.8l2.3-3.8h15.4l1.8 3.8h8.6l-14-24.8h-8.3zm0 15.2 4-7.9 4.1 7.9h-8.1zm55.4-6.3c0-4.8-3.2-8.8-8.9-8.8h-21.9v24.7h7.8v-7.4h7.3l7 7.4h9.3l-7.2-7.7c3.8-1 6.6-3.9 6.6-8.2zm-10.6 2.8h-12.2v-5.7h11.9c1.9 0 3.1 1.2 3.1 2.9s-1.1 2.8-2.8 2.8zm13.3-5.7h11v18.8h7v-18.8h11.6v-5.9h-29.7l0.1 5.9zm57.5-6v14.3c0 2.8-1.2 4.7-4.2 4.7h-7.5c-2.3 0-4-1.9-4-4.3l0.1-14.7h-7.2v15.1c0 5.6 4.1 9.7 9.4 9.7h10.5c5.9 0 10.9-3.4 10.9-9.7l-0.1-15.1h-7.9z"/>
  <g id="d" class="cls-2">
    <path class="cls-3" d="m129 93.6h5.6c2.9 0 5 1.4 5 3.9 0 2.6-1.6 3.9-5 3.9h-5.6v-7.8zm5.7 6.2c1.7 0 2.8-0.8 2.8-2.3 0-1.6-1.1-2.3-2.8-2.3h-3.9l-0.1 4.6h4z"/>
    <path class="cls-3" d="m147.8 101.4 0.1-8h1.7l0.1 8h-1.9z"/>
    <path class="cls-3" d="m163.2 101.4c-2.5 0-4.7-1.3-4.7-3.9 0-2.8 2.4-4.1 4.7-4.1h5.5v1.7h-5.6c-1.4 0-2.8 0.7-2.8 2.3s1.4 2.3 2.8 2.3h3.8v-2.3h1.8l-0.1 4h-5.4z"/>
    <path class="cls-3" d="m178.7 101.4 0.1-8h1.8v8h-1.9z"/>
    <path class="cls-3" d="m193.4 101.4 0.1-6.4h-3.9v-1.6h9.6v1.6h-3.9l-0.1 6.4h-1.8z"/>
    <path class="cls-3" d="m214.8 99.4h-5.3l-1.1 1.9h-2.2l4.9-7.8h2.4l4.5 7.8h-2.2l-1-1.9zm-4.5-1.5h3.6l-1.7-3-1.9 3z"/>
    <path class="cls-3" d="m226.4 101.4 0.1-7.9h1.8l0.1 6.2h6.6v1.7h-8.6z"/>
  </g>
</svg>
